<?xml version="1.0" encoding="UTF-8" standalone="no"?>
<svg
   width="28"
   height="28"
   viewBox="0 0 28 28"
   fill="none"
   version="1.1"
   id="svg859"
   sodipodi:docname="minus.svg"
   inkscape:version="1.1.1 (1:1.1+202109281949+c3084ef5ed)"
   xmlns:inkscape="http://www.inkscape.org/namespaces/inkscape"
   xmlns:sodipodi="http://sodipodi.sourceforge.net/DTD/sodipodi-0.dtd"
   xmlns="http://www.w3.org/2000/svg"
   xmlns:svg="http://www.w3.org/2000/svg">
  <defs
     id="defs863" />
  <sodipodi:namedview
     id="namedview861"
     pagecolor="#ffffff"
     bordercolor="#666666"
     borderopacity="1.0"
     inkscape:pageshadow="2"
     inkscape:pageopacity="0.0"
     inkscape:pagecheckerboard="0"
     showgrid="false"
     inkscape:zoom="30.142857"
     inkscape:cx="7.4478673"
     inkscape:cy="13.983412"
     inkscape:window-width="1920"
     inkscape:window-height="1016"
     inkscape:window-x="0"
     inkscape:window-y="27"
     inkscape:window-maximized="1"
     inkscape:current-layer="svg859" />
  <path
     d="M 14,2 C 7.37258,2 2,7.37258 2,14 2,14.993214 2.1206653,15.958247 2.3481362,16.881237 3.6385051,22.117062 8.3657974,26 14,26 20.6274,26 26,20.6274 26,14 26,7.37258 20.6274,2 14,2 Z"
     stroke="#e83f5b"
     stroke-width="3"
     stroke-linecap="round"
     stroke-linejoin="round"
     id="path855"
     sodipodi:nodetypes="ssssss"
     style="stroke:#ef3e36;stroke-opacity:1" />
  <path
     d="M7.57143 15.0713C6.97969 15.0713 6.5 14.5916 6.5 13.9999V13.9999C6.5 13.4082 6.97969 12.9285 7.57143 12.9285L20.4286 12.9285C21.0203 12.9285 21.5 13.4082 21.5 13.9999V13.9999C21.5 14.5916 21.0203 15.0713 20.4286 15.0713L7.57143 15.0713Z"
     fill="#E83F5B"
     id="path857"
     style="fill:#ef3e36;fill-opacity:1" />
</svg>
